USFL
nRows=111
nColumns=2
inDegrees=yes
endheader
time	soleus_r	
2.43347	 42.428537	
2.50504	 42.436162	
2.57661	 42.537862	
2.64819	 42.569001	
2.71976	 42.449187	
2.79133	 42.407168	
2.8629	 42.142367	
2.93448	 42.172288	
3.00605	 42.135600	
3.07762	 42.373828	
3.14919	 42.521611	
3.22077	 42.251623	
3.29234	 42.145008	
3.36391	 42.376598	
3.43548	 42.656113	
3.50706	 42.449633	
3.57863	 42.407193	
3.6502	 42.209548	
3.72177	 42.387555	
3.79335	 42.279009	
3.86492	 42.305523	
3.93649	 42.394507	
4.00806	 42.411487	
4.07964	 42.424865	
4.15121	 42.432097	
4.22278	 42.385864	
4.29435	 42.430298	
4.36593	 42.506670	
4.4375	 42.635152	
4.50907	 42.727769	
4.58065	 42.659454	
4.65222	 42.623395	
4.72379	 42.720082	
4.79536	 42.392955	
4.86694	 43.285619	
4.93851	 35.394515	
5.01008	 34.933733	
5.08165	 34.706035	
5.15323	 35.059020	
5.2248	 35.408274	
5.29637	 35.886327	
5.36794	 36.108371	
5.43952	 36.323468	
5.51109	 35.289280	
5.58266	 34.818917	
5.65423	 35.350878	
5.72581	 34.022553	
5.79738	 31.714856	
5.86895	 31.843072	
5.94052	 31.819680	
6.0121	 31.701952	
6.08367	 31.877392	
6.15524	 31.452700	
6.22681	 29.318493	
6.29839	 29.433360	
6.36996	 29.363357	
6.44153	 29.288576	
6.5131	 29.087777	
6.58468	 29.367115	
6.65625	 29.251502	
6.72782	 29.044968	
6.7994	 29.229450	
6.87097	 28.962436	
6.94254	 28.752498	
7.01411	 29.120890	
7.08569	 28.510469	
7.15726	 28.832307	
7.22883	 28.764822	
7.3004	 29.033778	
7.37198	 29.082956	
7.44355	 29.027924	
7.51512	 29.176116	
7.58669	 29.045329	
7.65827	 29.169627	
7.72984	 29.320345	
7.80141	 29.268737	
7.87298	 28.880977	
7.94456	 27.279923	
8.01613	 27.062897	
8.0877	 28.574703	
8.15927	 28.615699	
8.23085	 28.304838	
8.30242	 28.136315	
8.37399	 28.333489	
8.44556	 27.995345	
8.51714	 28.134921	
8.58871	 28.028410	
8.66028	 28.130053	
8.73185	 28.222766	
8.80343	 28.273169	
8.875	 28.297400	
8.94657	 28.083056	
9.01815	 27.556183	
9.08972	 27.681454	
9.16129	 27.582164	
9.23286	 27.318727	
9.30444	 27.829676	
9.37601	 27.805484	
9.44758	 28.628112	
9.51915	 30.971856	
9.59073	 35.016631	
9.6623	 40.623532	
9.73387	 40.713700	
9.80544	 41.165344	
9.87702	 41.233436	
9.94859	 41.227897	
10.0202	 40.618032	
10.0917	 40.826475	
10.1633	 41.063657	
10.2349	 40.816065	
10.3065	 41.019918	
